<mxfile host="app.diagrams.net" modified="2023-08-24T14:20:21.477Z" agent="Mozilla/5.0 (Windows NT 10.0; Win64; x64; rv:109.0) Gecko/20100101 Firefox/116.0" etag="_Ocf1i4ZEFxllbNuWVH2" version="21.6.8" type="github">
  <diagram name="Sivu-1" id="u8w1255cLJUokRJfRU84">
    <mxGraphModel dx="1292" dy="700" grid="1" gridSize="5" guides="1" tooltips="1" connect="1" arrows="1" fold="1" page="1" pageScale="1" pageWidth="827" pageHeight="1169" math="1" shadow="0">
      <root>
        <mxCell id="0" />
        <mxCell id="1" parent="0" />
        <mxCell id="19g5wpBG-z4xOQPj4vC4-21" value="" style="endArrow=none;html=1;rounded=0;exitX=1;exitY=0.5;exitDx=0;exitDy=0;startArrow=classic;startFill=1;" parent="1" source="ajAWkNfieeJ6ma5MIzeF-5" target="19g5wpBG-z4xOQPj4vC4-10" edge="1">
          <mxGeometry width="50" height="50" relative="1" as="geometry">
            <mxPoint x="450" y="370" as="sourcePoint" />
            <mxPoint x="450" y="350" as="targetPoint" />
            <Array as="points">
              <mxPoint x="450" y="415" />
            </Array>
          </mxGeometry>
        </mxCell>
        <mxCell id="ajAWkNfieeJ6ma5MIzeF-14" style="edgeStyle=orthogonalEdgeStyle;rounded=0;orthogonalLoop=1;jettySize=auto;html=1;" parent="1" source="ajAWkNfieeJ6ma5MIzeF-3" target="ajAWkNfieeJ6ma5MIzeF-12" edge="1">
          <mxGeometry relative="1" as="geometry" />
        </mxCell>
        <mxCell id="LJnCSH4GFNBLOsBjrrsL-6" style="edgeStyle=orthogonalEdgeStyle;rounded=0;orthogonalLoop=1;jettySize=auto;html=1;entryX=0.5;entryY=1;entryDx=0;entryDy=0;" parent="1" source="ajAWkNfieeJ6ma5MIzeF-5" target="19g5wpBG-z4xOQPj4vC4-3" edge="1">
          <mxGeometry relative="1" as="geometry" />
        </mxCell>
        <mxCell id="ajAWkNfieeJ6ma5MIzeF-5" value="&lt;font style=&quot;font-size: 18px;&quot;&gt;$$S(z)-\hat{S}(z)$$&lt;/font&gt;" style="rounded=0;whiteSpace=wrap;html=1;" parent="1" vertex="1">
          <mxGeometry x="252.5" y="395" width="135" height="40" as="geometry" />
        </mxCell>
        <mxCell id="19g5wpBG-z4xOQPj4vC4-25" style="edgeStyle=orthogonalEdgeStyle;rounded=0;orthogonalLoop=1;jettySize=auto;html=1;entryX=0;entryY=0.5;entryDx=0;entryDy=0;" parent="1" source="ajAWkNfieeJ6ma5MIzeF-12" target="ajAWkNfieeJ6ma5MIzeF-1" edge="1">
          <mxGeometry relative="1" as="geometry" />
        </mxCell>
        <mxCell id="ajAWkNfieeJ6ma5MIzeF-12" value="&lt;font style=&quot;font-size: 18px;&quot;&gt;$$S(z)$$&lt;/font&gt;" style="rounded=0;whiteSpace=wrap;html=1;" parent="1" vertex="1">
          <mxGeometry x="510" y="200" width="80" height="40" as="geometry" />
        </mxCell>
        <mxCell id="ajAWkNfieeJ6ma5MIzeF-18" value="" style="endArrow=classic;html=1;rounded=0;" parent="1" edge="1" source="LJnCSH4GFNBLOsBjrrsL-8">
          <mxGeometry width="50" height="50" relative="1" as="geometry">
            <mxPoint x="320" y="320" as="sourcePoint" />
            <mxPoint x="340" y="180" as="targetPoint" />
            <Array as="points">
              <mxPoint x="320" y="260" />
              <mxPoint x="300" y="260" />
            </Array>
          </mxGeometry>
        </mxCell>
        <mxCell id="ajAWkNfieeJ6ma5MIzeF-3" value="&lt;font style=&quot;font-size: 18px;&quot;&gt;$$W(z)$$&lt;/font&gt;" style="rounded=0;whiteSpace=wrap;html=1;" parent="1" vertex="1">
          <mxGeometry x="280" y="200" width="80" height="40" as="geometry" />
        </mxCell>
        <mxCell id="ajAWkNfieeJ6ma5MIzeF-20" value="&lt;font size=&quot;1&quot; color=&quot;#0000cc&quot;&gt;&lt;i style=&quot;font-size: 14px;&quot;&gt;$$d(n)$$&lt;/i&gt;&lt;/font&gt;" style="text;html=1;strokeColor=none;fillColor=none;align=center;verticalAlign=middle;whiteSpace=wrap;rounded=0;" parent="1" vertex="1">
          <mxGeometry x="40" y="190" width="60" height="30" as="geometry" />
        </mxCell>
        <mxCell id="ajAWkNfieeJ6ma5MIzeF-21" value="&lt;font size=&quot;1&quot; color=&quot;#cc0000&quot;&gt;&lt;i style=&quot;font-size: 14px;&quot;&gt;$$y(n)$$&lt;/i&gt;&lt;/font&gt;" style="text;html=1;strokeColor=none;fillColor=none;align=center;verticalAlign=middle;whiteSpace=wrap;rounded=0;" parent="1" vertex="1">
          <mxGeometry x="585" y="190" width="60" height="30" as="geometry" />
        </mxCell>
        <mxCell id="ajAWkNfieeJ6ma5MIzeF-22" value="&lt;font size=&quot;1&quot; color=&quot;#009900&quot;&gt;&lt;i style=&quot;font-size: 14px;&quot;&gt;$$e(n)$$&lt;/i&gt;&lt;/font&gt;" style="text;html=1;strokeColor=none;fillColor=none;align=center;verticalAlign=middle;whiteSpace=wrap;rounded=0;" parent="1" vertex="1">
          <mxGeometry x="675" y="190" width="60" height="30" as="geometry" />
        </mxCell>
        <mxCell id="ajAWkNfieeJ6ma5MIzeF-23" value="&lt;font size=&quot;1&quot; color=&quot;#7f00ff&quot;&gt;&lt;i style=&quot;font-size: 14px;&quot;&gt;$$u(n)$$&lt;/i&gt;&lt;/font&gt;" style="text;html=1;strokeColor=none;fillColor=none;align=center;verticalAlign=middle;whiteSpace=wrap;rounded=0;" parent="1" vertex="1">
          <mxGeometry x="377.5" y="190" width="60" height="30" as="geometry" />
        </mxCell>
        <mxCell id="CBB9v3UhZUv1EWWix4jz-1" value="&lt;font style=&quot;font-size: 18px;&quot;&gt;$$\hat {S}(z)$$&lt;/font&gt;" style="rounded=0;whiteSpace=wrap;html=1;" parent="1" vertex="1">
          <mxGeometry x="200" y="245" width="40" height="70" as="geometry" />
        </mxCell>
        <mxCell id="CBB9v3UhZUv1EWWix4jz-2" value="&lt;font size=&quot;1&quot; color=&quot;#cc6600&quot;&gt;&lt;i style=&quot;font-size: 14px;&quot;&gt;$$\hat{x}(n)$$&lt;/i&gt;&lt;/font&gt;" style="text;html=1;strokeColor=none;fillColor=none;align=center;verticalAlign=middle;whiteSpace=wrap;rounded=0;" parent="1" vertex="1">
          <mxGeometry x="215" y="315" width="60" height="30" as="geometry" />
        </mxCell>
        <mxCell id="LJnCSH4GFNBLOsBjrrsL-3" style="edgeStyle=orthogonalEdgeStyle;rounded=0;orthogonalLoop=1;jettySize=auto;html=1;entryX=0;entryY=0.5;entryDx=0;entryDy=0;" parent="1" source="19g5wpBG-z4xOQPj4vC4-3" target="ajAWkNfieeJ6ma5MIzeF-3" edge="1">
          <mxGeometry relative="1" as="geometry" />
        </mxCell>
        <mxCell id="19g5wpBG-z4xOQPj4vC4-3" value="$$+$$" style="ellipse;whiteSpace=wrap;html=1;aspect=fixed;" parent="1" vertex="1">
          <mxGeometry x="170" y="210" width="20" height="20" as="geometry" />
        </mxCell>
        <mxCell id="19g5wpBG-z4xOQPj4vC4-10" value="" style="verticalLabelPosition=bottom;verticalAlign=top;html=1;shape=mxgraph.basic.arc;startAngle=0.5;endAngle=0;rotation=-180;" parent="1" vertex="1">
          <mxGeometry x="440" y="335" width="20" height="20" as="geometry" />
        </mxCell>
        <mxCell id="19g5wpBG-z4xOQPj4vC4-12" value="" style="endArrow=none;html=1;rounded=0;" parent="1" source="19g5wpBG-z4xOQPj4vC4-10" edge="1">
          <mxGeometry width="50" height="50" relative="1" as="geometry">
            <mxPoint x="400" y="350" as="sourcePoint" />
            <mxPoint x="450" y="220" as="targetPoint" />
          </mxGeometry>
        </mxCell>
        <mxCell id="19g5wpBG-z4xOQPj4vC4-13" value="" style="endArrow=none;html=1;rounded=0;exitX=0;exitY=0.5;exitDx=0;exitDy=0;exitPerimeter=0;" parent="1" source="19g5wpBG-z4xOQPj4vC4-10" edge="1">
          <mxGeometry width="50" height="50" relative="1" as="geometry">
            <mxPoint x="470" y="340" as="sourcePoint" />
            <mxPoint x="680" y="220" as="targetPoint" />
            <Array as="points">
              <mxPoint x="680" y="345" />
            </Array>
          </mxGeometry>
        </mxCell>
        <mxCell id="19g5wpBG-z4xOQPj4vC4-14" value="" style="endArrow=classic;html=1;rounded=0;exitX=0.126;exitY=0.496;exitDx=0;exitDy=0;exitPerimeter=0;entryX=1;entryY=0.5;entryDx=0;entryDy=0;" parent="1" source="19g5wpBG-z4xOQPj4vC4-10" target="LJnCSH4GFNBLOsBjrrsL-8" edge="1">
          <mxGeometry width="50" height="50" relative="1" as="geometry">
            <mxPoint x="450" y="340" as="sourcePoint" />
            <mxPoint x="400" y="335" as="targetPoint" />
          </mxGeometry>
        </mxCell>
        <mxCell id="19g5wpBG-z4xOQPj4vC4-22" value="&lt;div style=&quot;font-size: 15px;&quot;&gt;&lt;font style=&quot;font-size: 14px;&quot; color=&quot;#0000cc&quot;&gt;$$\hat{d}(n)$$&lt;/font&gt;&lt;/div&gt;" style="text;html=1;strokeColor=none;fillColor=none;align=center;verticalAlign=middle;whiteSpace=wrap;rounded=0;" parent="1" vertex="1">
          <mxGeometry x="200" y="190" width="60" height="25" as="geometry" />
        </mxCell>
        <mxCell id="LJnCSH4GFNBLOsBjrrsL-5" style="edgeStyle=orthogonalEdgeStyle;rounded=0;orthogonalLoop=1;jettySize=auto;html=1;" parent="1" source="ajAWkNfieeJ6ma5MIzeF-1" edge="1">
          <mxGeometry relative="1" as="geometry">
            <mxPoint x="740" y="220" as="targetPoint" />
          </mxGeometry>
        </mxCell>
        <mxCell id="ajAWkNfieeJ6ma5MIzeF-1" value="$$+$$" style="ellipse;whiteSpace=wrap;html=1;aspect=fixed;" parent="1" vertex="1">
          <mxGeometry x="640" y="210" width="20" height="20" as="geometry" />
        </mxCell>
        <mxCell id="19g5wpBG-z4xOQPj4vC4-26" value="" style="endArrow=classic;html=1;rounded=0;entryX=0;entryY=0.5;entryDx=0;entryDy=0;" parent="1" target="19g5wpBG-z4xOQPj4vC4-3" edge="1">
          <mxGeometry width="50" height="50" relative="1" as="geometry">
            <mxPoint x="40" y="220" as="sourcePoint" />
            <mxPoint x="115" y="220" as="targetPoint" />
          </mxGeometry>
        </mxCell>
        <mxCell id="LJnCSH4GFNBLOsBjrrsL-4" value="" style="endArrow=classic;html=1;rounded=0;entryX=0.5;entryY=0;entryDx=0;entryDy=0;" parent="1" target="ajAWkNfieeJ6ma5MIzeF-1" edge="1">
          <mxGeometry width="50" height="50" relative="1" as="geometry">
            <mxPoint x="120" y="220" as="sourcePoint" />
            <mxPoint x="515" y="140" as="targetPoint" />
            <Array as="points">
              <mxPoint x="120" y="140" />
              <mxPoint x="650" y="140" />
            </Array>
          </mxGeometry>
        </mxCell>
        <mxCell id="LJnCSH4GFNBLOsBjrrsL-8" value="&lt;font style=&quot;font-size: 18px;&quot;&gt;$$LMS$$&lt;/font&gt;" style="rounded=0;whiteSpace=wrap;html=1;" parent="1" vertex="1">
          <mxGeometry x="270" y="325" width="100" height="40" as="geometry" />
        </mxCell>
        <mxCell id="LJnCSH4GFNBLOsBjrrsL-10" value="" style="endArrow=classic;html=1;rounded=0;entryX=0.5;entryY=0;entryDx=0;entryDy=0;" parent="1" target="CBB9v3UhZUv1EWWix4jz-1" edge="1">
          <mxGeometry width="50" height="50" relative="1" as="geometry">
            <mxPoint x="220" y="220" as="sourcePoint" />
            <mxPoint x="270" y="170" as="targetPoint" />
          </mxGeometry>
        </mxCell>
        <mxCell id="LJnCSH4GFNBLOsBjrrsL-11" value="" style="endArrow=classic;html=1;rounded=0;entryX=0;entryY=0.5;entryDx=0;entryDy=0;exitX=0.5;exitY=1;exitDx=0;exitDy=0;" parent="1" source="CBB9v3UhZUv1EWWix4jz-1" target="LJnCSH4GFNBLOsBjrrsL-8" edge="1">
          <mxGeometry width="50" height="50" relative="1" as="geometry">
            <mxPoint x="220" y="310" as="sourcePoint" />
            <mxPoint x="270" y="260" as="targetPoint" />
            <Array as="points">
              <mxPoint x="220" y="345" />
            </Array>
          </mxGeometry>
        </mxCell>
        <mxCell id="cp9aq2IHFoFcwLZN0nTS-1" value="&lt;font size=&quot;1&quot; color=&quot;#cc0000&quot;&gt;&lt;i style=&quot;font-size: 14px;&quot;&gt;$$y(n)-\hat{y}(n)$$&lt;/i&gt;&lt;/font&gt;" style="text;html=1;strokeColor=none;fillColor=none;align=center;verticalAlign=middle;whiteSpace=wrap;rounded=0;" vertex="1" parent="1">
          <mxGeometry x="105" y="260" width="60" height="30" as="geometry" />
        </mxCell>
      </root>
    </mxGraphModel>
  </diagram>
</mxfile>
